<svg id="Capa_1" fill="white" enable-background="new 0 0 512 512" height="512" viewBox="0 0 512 512" width="512" xmlns="http://www.w3.org/2000/svg"><path d="m451.294 245.303c-3.619-8.947-10.506-15.949-19.392-19.717-7.395-3.136-15.434-3.71-23.08-1.732v-198.754c0-13.84-11.259-25.1-25.099-25.1-13.344 0-24.285 10.468-25.052 23.623h-30.391c-4.142 0-7.5 3.358-7.5 7.5 0 4.143 3.358 7.5 7.5 7.5h30.344v50.91h-205.248v-50.91h142.218c4.142 0 7.5-3.357 7.5-7.5 0-4.142-3.358-7.5-7.5-7.5h-142.265c-.768-13.155-11.709-23.623-25.053-23.623-13.84 0-25.099 11.26-25.099 25.1v59.918c0 4.143 3.358 7.5 7.5 7.5s7.5-3.357 7.5-7.5v-59.918c0-5.569 4.53-10.1 10.099-10.1s10.099 4.53 10.099 10.1v211.212c-6.779-2.117-13.512-4.424-20.198-6.914v-111.694c0-4.143-3.358-7.5-7.5-7.5s-7.5 3.357-7.5 7.5v106.157c-17.256-4.436-35.612 4.482-42.472 21.442-7.471 18.471 1.478 39.574 19.948 47.046 9.71 3.927 19.514 7.511 29.397 10.765l100.545 74.86-114.378 85.16c-11.993 8.929-14.485 25.949-5.556 37.943 5.093 6.84 13.229 10.923 21.764 10.923 5.868 0 11.462-1.855 16.178-5.367l127.397-94.853 127.396 94.853c4.716 3.512 10.31 5.367 16.178 5.367 8.535 0 16.671-4.083 21.765-10.924 8.929-11.993 6.436-29.014-5.556-37.942l-58.526-43.576c-3.322-2.474-8.021-1.786-10.495 1.536-2.474 3.323-1.786 8.021 1.537 10.495l58.526 43.576c5.359 3.989 6.472 11.595 2.483 16.953-2.311 3.103-5.858 4.882-9.734 4.882-2.616 0-5.113-.829-7.22-2.398l-242.01-180.188c17.391 4.039 34.993 7.061 52.761 9.073l120.039 89.374c1.345 1.002 2.916 1.484 4.473 1.484 2.289 0 4.549-1.044 6.022-3.021 2.474-3.322 1.786-8.021-1.537-10.494l-30.697-22.855 100.544-74.86c9.884-3.254 19.687-6.838 29.398-10.765 18.47-7.473 27.418-28.577 19.947-47.047zm-331.648 249.299c-2.108 1.569-4.605 2.398-7.221 2.398-3.875 0-7.423-1.779-9.733-4.881-3.99-5.359-2.877-12.965 2.482-16.954l117.978-87.841 20.288 15.105zm264.078-479.602c5.569 0 10.099 4.53 10.099 10.1v204.299c-6.686 2.49-13.42 4.796-20.198 6.914v-211.213c-.001-5.57 4.53-10.1 10.099-10.1zm-25.1 89.533v51.334h-205.248v-51.334zm-205.248 66.334h205.249v69.807c-33.366 8.988-67.722 13.529-102.624 13.529-34.903 0-69.258-4.54-102.624-13.528v-69.808zm77.979 154.952c8.187.427 16.402.649 24.645.649 8.242 0 16.457-.222 24.644-.649l-24.644 18.349zm57.491 42.804-20.288-15.105 40.335-30.032c17.768-2.012 35.371-5.034 52.762-9.073zm136.877-90.181c-54.18 21.914-111.283 33.026-169.723 33.026s-115.544-11.111-169.722-33.025c-10.803-4.369-16.036-16.712-11.667-27.515 3.323-8.215 11.256-13.208 19.618-13.208 2.633 0 5.31.495 7.897 1.542 49.119 19.867 100.89 29.941 153.874 29.941s104.756-10.074 153.875-29.942c5.232-2.117 10.976-2.069 16.172.135 5.197 2.204 9.225 6.299 11.342 11.532 4.369 10.802-.864 23.145-11.666 27.514z"/></svg>
