<svg id="Capa_1" enable-background="new 0 0 497 497" height="512" viewBox="0 0 497 497" width="512" xmlns="http://www.w3.org/2000/svg"><g><g><path d="m298.535 308.765-205.339 152.884c-8.69 6.47-10.489 18.759-4.019 27.449 3.85 5.17 9.762 7.902 15.749 7.902 4.074 0 8.181-1.263 11.699-3.883l274.311-204.238" fill="#b57f5f"/></g><path d="m231.785 407.375 32.846-24.456-32.846-24.455-32.847 24.455z" fill="#9f6e50"/><path d="m403.804 461.649-205.34-152.885-42.441-9.626-49.959-10.258 274.31 204.237c3.518 2.62 7.626 3.883 11.699 3.883 5.987 0 11.899-2.732 15.749-7.902 6.471-8.69 4.672-20.979-4.018-27.449z" fill="#b57f5f"/><path d="m403.804 461.649-205.34-152.885v-51.341l-92.399 31.457 2.941 2.19 69.458-23.647-22.441 31.715 227.78 172.511c7.948 5.918 10.109 16.695 5.474 25.142.929.134 1.863.208 2.796.208 5.987 0 11.899-2.732 15.749-7.902 6.471-8.689 4.672-20.978-4.018-27.448z" fill="#9f6e50"/><path d="m378.209 145.867-39.437 10h-219.981v-132.244h219.981l39.437 10z" fill="#ffe187"/><path d="m338.772 23.622h39.437v132.245h-39.437z" fill="#ffd271"/><g><path d="m338.772 97.033h-219.98c-4.142 0-7.5-3.357-7.5-7.5s3.358-7.5 7.5-7.5h219.98c4.142 0 14.022 3.357 14.022 7.5s-9.88 7.5-14.022 7.5z" fill="#edf4ff"/></g><path d="m338.772 82.033h28.044l-8.192 15h-19.852z" fill="#dbeaff"/><path d="m358.624 260.747h22.495l10.703-243.148c0-9.72-5.879-16.599-15.599-16.599-2.807 0-5.461-.343-7.816.826-5.798 2.879-9.784 8.86-9.784 15.773v243.148z" fill="#b57f5f"/><path d="m376.223 0c-2.808 0-5.452.674-7.807 1.844 5.798 2.879 9.792 8.843 9.792 15.755v243.148h15.614v-243.148c.001-9.72-7.879-17.599-17.599-17.599z" fill="#9f6e50"/><path d="m103.177 260.747h24.95l8.248-243.148c0-9.72-5.879-15.599-15.599-15.599-2.43 0-4.745-1.507-6.85-.617-6.317 2.672-10.749 8.926-10.749 16.216z" fill="#b57f5f"/><path d="m120.777 0c-2.808 0-5.452.674-7.807 1.844 5.798 2.879 9.792 8.843 9.792 15.755v243.148h15.614v-243.148c0-9.72-7.88-17.599-17.599-17.599z" fill="#9f6e50"/><g><path d="m248.5 311.468c-59.41 0-117.46-11.296-172.535-33.573-14.659-5.929-21.736-22.62-15.807-37.28 5.93-14.66 22.62-21.736 37.28-15.807 48.221 19.505 99.046 29.395 151.062 29.395 43.99 0 87.127-7.073 128.559-21.053 7.56-2.551 18.691.634 26.132-2.376 14.659-5.93 22.547-3.625 28.477 11.035 5.929 14.66 2.913 26.107-11.747 32.036-8.805 3.561-16.571 10.892-25.522 13.891-47.035 15.759-95.987 23.732-145.899 23.732z" fill="#b3e59f"/></g><g><path d="m436.842 240.615c-5.93-14.66-22.621-21.737-37.28-15.807-7.441 3.01-14.944 5.789-22.504 8.34 12.245-.616 24.083 6.465 28.94 18.472 5.451 13.478.267 28.609-11.601 36.113 8.951-2.999 17.832-6.276 26.638-9.838 14.659-5.929 21.736-22.62 15.807-37.28z" fill="#95d6a4"/></g></g></svg>