<svg id="Capa_1" enable-background="new 0 0 512 512" height="512" viewBox="0 0 512 512" width="512" xmlns="http://www.w3.org/2000/svg"><g><g><g><path d="m306.035 316.265-205.339 152.884c-8.69 6.47-10.489 18.759-4.019 27.449 3.85 5.17 9.762 7.902 15.749 7.902 4.074 0 8.181-1.263 11.699-3.883l274.311-204.238" fill="#b57f5f"/></g><path d="m239.285 414.875 32.846-24.456-32.846-24.455-32.847 24.455z" fill="#9f6e50"/><path d="m411.304 469.149-205.34-152.885-42.441-9.626-49.959-10.258 274.31 204.237c3.518 2.62 7.626 3.883 11.699 3.883 5.987 0 11.899-2.732 15.749-7.902 6.471-8.69 4.671-20.979-4.018-27.449z" fill="#b57f5f"/><path d="m411.304 469.149-205.34-152.885v-51.341l-92.399 31.457 2.941 2.19 69.458-23.647-22.441 31.715 227.78 172.511c7.948 5.918 10.109 16.695 5.474 25.142.929.134 1.863.208 2.796.208 5.987 0 11.899-2.732 15.749-7.902 6.471-8.689 4.671-20.978-4.018-27.448z" fill="#9f6e50"/><path d="m385.709 153.367-39.437 10h-219.981v-132.244h219.981l39.437 10z" fill="#ffe187"/><path d="m346.272 31.122h39.437v132.245h-39.437z" fill="#ffd271"/><path d="m366.124 268.247h22.495l10.703-243.148c0-9.72-5.879-16.599-15.599-16.599-2.807 0-5.461-.343-7.816.826-5.798 2.879-9.784 8.86-9.784 15.773v243.148z" fill="#b57f5f"/><path d="m383.723 7.5c-2.808 0-5.452.674-7.807 1.844 5.798 2.879 9.792 8.843 9.792 15.755v243.148h15.614v-243.148c.001-9.72-7.879-17.599-17.599-17.599z" fill="#9f6e50"/><path d="m110.677 268.247h24.95l8.248-243.148c0-9.72-5.879-15.599-15.599-15.599-2.43 0-4.745-1.508-6.85-.617-6.317 2.672-10.749 8.926-10.749 16.216z" fill="#b57f5f"/><path d="m128.277 7.5c-2.808 0-5.452.674-7.807 1.844 5.798 2.879 9.792 8.843 9.792 15.755v243.148h15.614v-243.148c0-9.72-7.88-17.599-17.599-17.599z" fill="#9f6e50"/><g><path d="m256 318.968c-59.41 0-117.46-11.296-172.535-33.573-14.659-5.929-21.736-22.62-15.807-37.28 5.93-14.66 22.62-21.736 37.28-15.807 48.221 19.505 99.046 29.395 151.062 29.395 43.99 0 87.127-7.073 128.559-21.053 7.56-2.551 18.691.634 26.132-2.376 14.659-5.93 22.547-3.625 28.477 11.035 5.929 14.66 2.913 26.107-11.747 32.036-8.805 3.561-16.571 10.892-25.522 13.891-47.035 15.759-95.987 23.732-145.899 23.732z" fill="#b3e59f"/></g><g><path d="m444.342 248.115c-5.93-14.66-22.621-21.737-37.28-15.807-7.441 3.01-14.944 5.789-22.504 8.34 12.245-.616 24.083 6.465 28.94 18.472 5.451 13.478.267 28.609-11.601 36.113 8.951-2.999 17.833-6.276 26.638-9.838 14.659-5.929 21.736-22.62 15.807-37.28z" fill="#95d6a4"/></g></g><path d="m451.294 245.303c-3.619-8.947-10.506-15.949-19.392-19.717-7.395-3.136-15.434-3.71-23.08-1.732v-198.754c0-13.84-11.259-25.1-25.099-25.1-13.344 0-24.285 10.468-25.052 23.623h-30.391c-4.142 0-7.5 3.358-7.5 7.5 0 4.143 3.358 7.5 7.5 7.5h30.344v50.91h-205.248v-50.91h142.218c4.142 0 7.5-3.357 7.5-7.5 0-4.142-3.358-7.5-7.5-7.5h-142.265c-.768-13.155-11.709-23.623-25.053-23.623-13.84 0-25.099 11.26-25.099 25.1v59.918c0 4.143 3.358 7.5 7.5 7.5s7.5-3.357 7.5-7.5v-59.918c0-5.569 4.53-10.1 10.099-10.1s10.099 4.53 10.099 10.1v211.212c-6.779-2.117-13.512-4.424-20.198-6.914v-111.694c0-4.143-3.358-7.5-7.5-7.5s-7.5 3.357-7.5 7.5v106.157c-17.256-4.436-35.612 4.482-42.472 21.442-7.471 18.471 1.478 39.574 19.948 47.046 9.71 3.927 19.514 7.511 29.397 10.765l100.545 74.86-114.378 85.16c-11.993 8.929-14.485 25.949-5.556 37.943 5.093 6.84 13.229 10.923 21.764 10.923 5.868 0 11.462-1.855 16.178-5.367l127.397-94.853 127.396 94.853c4.716 3.512 10.31 5.367 16.178 5.367 8.535 0 16.671-4.083 21.765-10.924 8.929-11.993 6.436-29.014-5.556-37.942l-58.526-43.576c-3.322-2.474-8.021-1.786-10.495 1.536-2.474 3.323-1.786 8.021 1.537 10.495l58.526 43.576c5.359 3.989 6.472 11.595 2.483 16.953-2.311 3.103-5.858 4.882-9.734 4.882-2.616 0-5.113-.829-7.22-2.398l-242.01-180.188c17.391 4.039 34.993 7.061 52.761 9.073l120.039 89.374c1.345 1.002 2.916 1.484 4.473 1.484 2.289 0 4.549-1.044 6.022-3.021 2.474-3.322 1.786-8.021-1.537-10.494l-30.697-22.855 100.544-74.86c9.884-3.254 19.687-6.838 29.398-10.765 18.47-7.473 27.418-28.577 19.947-47.047zm-331.648 249.299c-2.108 1.569-4.605 2.398-7.221 2.398-3.875 0-7.423-1.779-9.733-4.881-3.99-5.359-2.877-12.965 2.482-16.954l117.978-87.841 20.288 15.105zm264.078-479.602c5.569 0 10.099 4.53 10.099 10.1v204.299c-6.686 2.49-13.42 4.796-20.198 6.914v-211.213c-.001-5.57 4.53-10.1 10.099-10.1zm-25.1 89.533v51.334h-205.248v-51.334zm-205.248 66.334h205.249v69.807c-33.366 8.988-67.722 13.529-102.624 13.529-34.903 0-69.258-4.54-102.624-13.528v-69.808zm77.979 154.952c8.187.427 16.402.649 24.645.649 8.242 0 16.457-.222 24.644-.649l-24.644 18.349zm57.491 42.804-20.288-15.105 40.335-30.032c17.768-2.012 35.371-5.034 52.762-9.073zm136.877-90.181c-54.18 21.914-111.283 33.026-169.723 33.026s-115.544-11.111-169.722-33.025c-10.803-4.369-16.036-16.712-11.667-27.515 3.323-8.215 11.256-13.208 19.618-13.208 2.633 0 5.31.495 7.897 1.542 49.119 19.867 100.89 29.941 153.874 29.941s104.756-10.074 153.875-29.942c5.232-2.117 10.976-2.069 16.172.135 5.197 2.204 9.225 6.299 11.342 11.532 4.369 10.802-.864 23.145-11.666 27.514z"/></g></svg>
