<svg viewBox="0 0 900 93" fill="none" xmlns="http://www.w3.org/2000/svg">
<path d="M883.429 65.6966C883.128 65.5943 847.511 52.1931 778.884 38.4851C715.575 25.9023 610.328 10.3529 468.058 8.2046C462.942 8.1023 457.524 8.1023 450.701 8C450.701 8 450.701 8 450.601 8C450.4 8 450.099 8 449.899 8C449.698 8 449.397 8 449.196 8C449.196 8 449.196 8 449.096 8C442.273 8 436.856 8.1023 431.739 8.2046C289.469 10.3529 184.222 25.9023 120.913 38.4851C52.3866 52.1931 16.8694 65.492 16.5684 65.6966C15.3644 66.2081 14.6621 67.5379 15.1638 68.8678C15.5651 69.8908 16.4681 70.5046 17.3711 70.5046C17.6721 70.5046 17.9731 70.5046 18.1737 70.3C18.575 70.0954 53.6909 56.8989 122.016 43.2931C185.125 30.7103 290.171 15.2632 432.04 13.1149C437.257 13.0126 442.875 13.0126 449.999 12.9103C457.122 12.9103 462.741 13.0126 467.958 13.1149C609.726 15.2632 714.672 30.7103 777.781 43.2931C846.106 56.8989 881.423 70.1977 881.724 70.3C882.025 70.4023 882.326 70.5046 882.526 70.5046C883.53 70.5046 884.433 69.8908 884.734 68.8678C885.336 67.5379 884.734 66.1058 883.429 65.6966Z" fill="#DDDDDD" stroke="#DDDDDD" stroke-width="6" stroke-miterlimit="10"/>
<g filter="url(#filter0_f)">
<path d="M882 71.9C881.7 71.8 846.2 58.7 777.8 45.3C714.7 33 609.8 17.8 468 15.7C462.9 15.6 457.5 15.6 450.7 15.5C450.7 15.5 450.7 15.5 450.6 15.5C450.4 15.5 450.1 15.5 449.9 15.5C449.7 15.5 449.4 15.5 449.2 15.5C449.2 15.5 449.2 15.5 449.1 15.5C442.3 15.5 436.9 15.6 431.8 15.7C290 17.8 185.1 33 122 45.3C53.7 58.7 18.3 71.7 18 71.9C16.8 72.4 16.1 73.7 16.6 75C17 76 17.9 76.6 18.8 76.6C19.1 76.6 19.4 76.6 19.6 76.4C20 76.2 55 63.3 123.1 50C186 37.7 290.7 22.6 432.1 20.5C437.3 20.4 442.9 20.4 450 20.3C457.1 20.3 462.7 20.4 467.9 20.5C609.2 22.6 713.8 37.7 776.7 50C844.8 63.3 880 76.3 880.3 76.4C880.6 76.5 880.9 76.6 881.1 76.6C882.1 76.6 883 76 883.3 75C883.9 73.7 883.3 72.3 882 71.9Z" fill="#DDDDDD" stroke="#DDDDDD" stroke-width="5" stroke-miterlimit="10"/>
</g>
<defs>
<filter id="filter0_f" x="0.930176" y="0" width="898.1" height="92.1002" filterUnits="userSpaceOnUse" color-interpolation-filters="sRGB">
<feFlood flood-opacity="0" result="BackgroundImageFix"/>
<feBlend mode="normal" in="SourceGraphic" in2="BackgroundImageFix" result="shape"/>
<feGaussianBlur stdDeviation="7.5" result="effect1_foregroundBlur"/>
</filter>
</defs>
</svg>