<?xml version="1.0" encoding="utf-8"?>
<!-- Generator: Adobe Illustrator 23.0.3, SVG Export Plug-In . SVG Version: 6.00 Build 0)  -->
<svg version="1.1" id="Icons" xmlns="http://www.w3.org/2000/svg" xmlns:xlink="http://www.w3.org/1999/xlink" x="0px" y="0px"
	 viewBox="0 0 32 32" style="enable-background:new 0 0 32 32;" xml:space="preserve">
<style type="text/css">
	.st0{fill:#FFB400;stroke:#000000;stroke-width:2;stroke-linecap:round;stroke-linejoin:round;stroke-miterlimit:10;}
</style>
<path class="st0" d="M9,29H5c-1.1,0-2-0.9-2-2V17c0-1.7,1.3-3,3-3h0c1.7,0,3,1.3,3,3V29z"/>
<path class="st0" d="M27,29h-4V17c0-1.7,1.3-3,3-3h0c1.7,0,3,1.3,3,3v10C29,28.1,28.1,29,27,29z"/>
<rect x="9" y="19" class="st0" width="14" height="10"/>
<path class="st0" d="M6,14V7.8C6,5.7,7.7,4,9.8,4h12.3C24.3,4,26,5.7,26,7.8V14"/>
</svg>
