<?xml version="1.0" encoding="utf-8"?>
<!-- Generator: Adobe Illustrator 24.1.2, SVG Export Plug-In . SVG Version: 6.00 Build 0)  -->
<svg version="1.1" id="Слой_1" focusable="false"
	 xmlns="http://www.w3.org/2000/svg" xmlns:xlink="http://www.w3.org/1999/xlink" x="0px" y="0px" viewBox="0 0 512 512"
	 style="enable-background:new 0 0 512 512;" xml:space="preserve">
<style type="text/css">
	.st0{fill:#FF4545;}
</style>
<path class="st0" d="M497,273L329,441c-15,15-41,4.5-41-17v-96H152c-13.3,0-24-10.7-24-24v-96c0-13.3,10.7-24,24-24h136V88
	c0-21.4,25.9-32,41-17l168,168C506.3,248.4,506.3,263.6,497,273z M192,436v-40c0-6.6-5.4-12-12-12H96c-17.7,0-32-14.3-32-32V160
	c0-17.7,14.3-32,32-32h84c6.6,0,12-5.4,12-12V76c0-6.6-5.4-12-12-12H96c-53,0-96,43-96,96v192c0,53,43,96,96,96h84
	C186.6,448,192,442.6,192,436z"/>
</svg>
